<svg width="21" height="21" viewBox="0 0 21 21" fill="none" xmlns="http://www.w3.org/2000/svg">
<path d="M13.5833 6.74998L15.5 8.66665C15.6558 8.81934 15.8652 8.90486 16.0833 8.90486C16.3014 8.90486 16.5109 8.81934 16.6666 8.66665L18.4166 6.91665C18.5693 6.76087 18.6549 6.55144 18.6549 6.33331C18.6549 6.11519 18.5693 5.90575 18.4166 5.74998L16.5 3.83331" stroke="#6B7280" stroke-width="2" stroke-linecap="round" stroke-linejoin="round"/>
<path d="M18.1667 2.16666L10.1667 10.1667" stroke="#6B7280" stroke-width="2" stroke-linecap="round" stroke-linejoin="round"/>
<path d="M6.91665 18C9.44795 18 11.5 15.948 11.5 13.4166C11.5 10.8853 9.44795 8.83331 6.91665 8.83331C4.38534 8.83331 2.33331 10.8853 2.33331 13.4166C2.33331 15.948 4.38534 18 6.91665 18Z" stroke="#6B7280" stroke-width="2" stroke-linecap="round" stroke-linejoin="round"/>
</svg>
